<svg width="24" height="24" viewBox="0 0 24 24" fill="none" xmlns="http://www.w3.org/2000/svg">
<path d="M11 18H14" stroke="#99F3F5" stroke-width="1.5" stroke-linecap="round" stroke-linejoin="round"/>
<path d="M6.469 18.873C6.441 18.873 6.419 18.895 6.419 18.923C6.419 18.951 6.441 18.973 6.469 18.973" stroke="#99F3F5" stroke-width="1.5" stroke-linecap="round" stroke-linejoin="round"/>
<path d="M19 12V5C19 3.896 18.105 3 17 3H6C4.895 3 4 3.896 4 5V10" stroke="#99F3F5" stroke-width="1.5" stroke-linecap="round" stroke-linejoin="round"/>
<path fill-rule="evenodd" clip-rule="evenodd" d="M20.5 20H18.409C17.581 20 16.909 19.328 16.909 18.5V13.5C16.909 12.672 17.581 12 18.409 12H20.5C21.328 12 22 12.672 22 13.5V18.5C22 19.328 21.328 20 20.5 20Z" stroke="#99F3F5" stroke-width="1.5" stroke-linecap="round" stroke-linejoin="round"/>
<path d="M16.91 15H11" stroke="#99F3F5" stroke-width="1.5" stroke-linecap="round" stroke-linejoin="round"/>
<path fill-rule="evenodd" clip-rule="evenodd" d="M9 21H4C2.895 21 2 20.105 2 19V12C2 10.895 2.895 10 4 10H9C10.105 10 11 10.895 11 12V19C11 20.105 10.105 21 9 21Z" stroke="#99F3F5" stroke-width="1.5" stroke-linecap="round" stroke-linejoin="round"/>
</svg>
