<svg width="88" height="17" viewBox="0 0 88 17" fill="none" xmlns="http://www.w3.org/2000/svg">
<path opacity="0.9" d="M7.14844 4.95668C7.09162 4.45241 6.85724 4.06179 6.44531 3.7848C6.03338 3.50426 5.51492 3.36399 4.88992 3.36399C4.44247 3.36399 4.0554 3.43501 3.72869 3.57706C3.40199 3.71555 3.14808 3.90732 2.96697 4.15234C2.78942 4.39382 2.70064 4.66903 2.70064 4.97798C2.70064 5.23722 2.76101 5.46094 2.88175 5.64915C3.00604 5.83736 3.16761 5.99538 3.36648 6.12322C3.56889 6.24751 3.78551 6.35227 4.01634 6.4375C4.24716 6.51918 4.46911 6.58665 4.68217 6.63991L5.74751 6.9169C6.09553 7.00213 6.45241 7.11754 6.81818 7.26314C7.18395 7.40874 7.52308 7.6005 7.83558 7.83842C8.14808 8.07635 8.40021 8.37109 8.59197 8.72266C8.78729 9.07422 8.88494 9.49503 8.88494 9.98509C8.88494 10.603 8.72514 11.1516 8.40554 11.631C8.08949 12.1104 7.62962 12.4886 7.02592 12.7656C6.42578 13.0426 5.69957 13.1811 4.8473 13.1811C4.03054 13.1811 3.32386 13.0515 2.72727 12.7923C2.13068 12.533 1.66371 12.1655 1.32635 11.6896C0.988991 11.2102 0.802557 10.642 0.767046 9.98509H2.41832C2.45028 10.3793 2.57813 10.7077 2.80185 10.9705C3.02912 11.2298 3.31854 11.4233 3.6701 11.5511C4.02521 11.6754 4.41406 11.7376 4.83665 11.7376C5.30185 11.7376 5.71555 11.6648 6.07777 11.5192C6.44354 11.37 6.73118 11.1641 6.9407 10.9013C7.15021 10.6349 7.25497 10.3242 7.25497 9.9691C7.25497 9.64595 7.16264 9.38139 6.97798 9.17543C6.79688 8.96946 6.55007 8.79901 6.23757 8.66406C5.92862 8.52912 5.57884 8.41016 5.18821 8.30717L3.89915 7.95561C3.02557 7.71768 2.3331 7.3679 1.82173 6.90625C1.31392 6.4446 1.06001 5.83381 1.06001 5.07386C1.06001 4.44531 1.23047 3.89666 1.57138 3.42791C1.91229 2.95916 2.37393 2.59517 2.95632 2.33594C3.53871 2.07315 4.19567 1.94176 4.9272 1.94176C5.66584 1.94176 6.31747 2.07138 6.8821 2.33061C7.45028 2.58984 7.89773 2.94673 8.22443 3.40128C8.55114 3.85227 8.72159 4.37074 8.7358 4.95668H7.14844ZM14.1704 13.1651C13.4033 13.1651 12.7339 12.9893 12.1622 12.6378C11.5905 12.2862 11.1466 11.7944 10.8305 11.1623C10.5145 10.5302 10.3564 9.79155 10.3564 8.94638C10.3564 8.09766 10.5145 7.35547 10.8305 6.71982C11.1466 6.08416 11.5905 5.59055 12.1622 5.23899C12.7339 4.88743 13.4033 4.71165 14.1704 4.71165C14.9374 4.71165 15.6068 4.88743 16.1785 5.23899C16.7503 5.59055 17.1942 6.08416 17.5102 6.71982C17.8263 7.35547 17.9843 8.09766 17.9843 8.94638C17.9843 9.79155 17.8263 10.5302 17.5102 11.1623C17.1942 11.7944 16.7503 12.2862 16.1785 12.6378C15.6068 12.9893 14.9374 13.1651 14.1704 13.1651ZM14.1757 11.8281C14.6729 11.8281 15.0848 11.6967 15.4115 11.4339C15.7382 11.1712 15.9797 10.8214 16.1359 10.3846C16.2957 9.9478 16.3756 9.46662 16.3756 8.94105C16.3756 8.41903 16.2957 7.93963 16.1359 7.50284C15.9797 7.0625 15.7382 6.70916 15.4115 6.44283C15.0848 6.17649 14.6729 6.04332 14.1757 6.04332C13.675 6.04332 13.2595 6.17649 12.9292 6.44283C12.6025 6.70916 12.3593 7.0625 12.1995 7.50284C12.0432 7.93963 11.9651 8.41903 11.9651 8.94105C11.9651 9.46662 12.0432 9.9478 12.1995 10.3846C12.3593 10.8214 12.6025 11.1712 12.9292 11.4339C13.2595 11.6967 13.675 11.8281 14.1757 11.8281ZM21.3548 2.09091V13H19.7621V2.09091H21.3548ZM28.6803 9.60689V4.81818H30.2783V13H28.7123V11.5831H28.627C28.4388 12.0199 28.137 12.3839 27.7215 12.6751C27.3096 12.9627 26.7964 13.1065 26.1821 13.1065C25.6565 13.1065 25.1913 12.9911 24.7865 12.7603C24.3852 12.5259 24.0692 12.1797 23.8383 11.7216C23.6111 11.2635 23.4974 10.6971 23.4974 10.0224V4.81818H25.0901V9.83061C25.0901 10.3881 25.2446 10.832 25.5535 11.1623C25.8625 11.4925 26.2638 11.6577 26.7574 11.6577C27.0557 11.6577 27.3522 11.5831 27.6469 11.4339C27.9452 11.2848 28.192 11.0593 28.3873 10.7575C28.5862 10.4556 28.6839 10.0721 28.6803 9.60689ZM35.8647 13.1651C35.0728 13.1651 34.391 12.9858 33.8192 12.6271C33.2511 12.2649 32.8143 11.766 32.5089 11.1303C32.2035 10.4947 32.0508 9.76669 32.0508 8.94638C32.0508 8.11541 32.207 7.3821 32.5195 6.74645C32.832 6.10724 33.2724 5.60831 33.8406 5.24964C34.4087 4.89098 35.0781 4.71165 35.8487 4.71165C36.4702 4.71165 37.0241 4.82706 37.5107 5.05788C37.9972 5.28516 38.3896 5.60476 38.6879 6.01669C38.9897 6.42862 39.169 6.9098 39.2259 7.46023H37.6758C37.5906 7.0767 37.3952 6.74645 37.0898 6.46946C36.788 6.19247 36.3832 6.05398 35.8754 6.05398C35.4315 6.05398 35.0426 6.17116 34.7088 6.40554C34.3786 6.63636 34.1211 6.96662 33.9364 7.39631C33.7518 7.82244 33.6594 8.3267 33.6594 8.90909C33.6594 9.50568 33.75 10.0206 33.9311 10.4538C34.1122 10.8871 34.3679 11.2227 34.6982 11.4606C35.032 11.6985 35.4244 11.8175 35.8754 11.8175C36.1772 11.8175 36.4506 11.7624 36.6957 11.6523C36.9442 11.5387 37.152 11.3771 37.3189 11.1676C37.4893 10.9581 37.6083 10.706 37.6758 10.4112H39.2259C39.169 10.9403 38.9968 11.4126 38.7092 11.8281C38.4215 12.2436 38.0362 12.5703 37.5533 12.8082C37.0739 13.0462 36.511 13.1651 35.8647 13.1651ZM35.2894 12.9574H36.3335L36.2482 13.3942C36.5572 13.4439 36.8271 13.5682 37.0579 13.767C37.2887 13.9659 37.4041 14.266 37.4041 14.6673C37.4077 15.1467 37.1999 15.5355 36.7809 15.8338C36.3654 16.1321 35.7635 16.2812 34.9751 16.2812L34.9432 15.3917C35.3125 15.3917 35.6108 15.3384 35.8381 15.2319C36.0689 15.1254 36.1861 14.9531 36.1896 14.7152C36.1932 14.4773 36.1044 14.3104 35.9233 14.2145C35.7457 14.1186 35.4616 14.0511 35.071 14.0121L35.2894 12.9574ZM44.3754 13.1651C43.6084 13.1651 42.939 12.9893 42.3673 12.6378C41.7955 12.2862 41.3517 11.7944 41.0356 11.1623C40.7195 10.5302 40.5615 9.79155 40.5615 8.94638C40.5615 8.09766 40.7195 7.35547 41.0356 6.71982C41.3517 6.08416 41.7955 5.59055 42.3673 5.23899C42.939 4.88743 43.6084 4.71165 44.3754 4.71165C45.1425 4.71165 45.8119 4.88743 46.3836 5.23899C46.9553 5.59055 47.3992 6.08416 47.7153 6.71982C48.0313 7.35547 48.1894 8.09766 48.1894 8.94638C48.1894 9.79155 48.0313 10.5302 47.7153 11.1623C47.3992 11.7944 46.9553 12.2862 46.3836 12.6378C45.8119 12.9893 45.1425 13.1651 44.3754 13.1651ZM44.3808 11.8281C44.8779 11.8281 45.2899 11.6967 45.6166 11.4339C45.9433 11.1712 46.1847 10.8214 46.341 10.3846C46.5008 9.9478 46.5807 9.46662 46.5807 8.94105C46.5807 8.41903 46.5008 7.93963 46.341 7.50284C46.1847 7.0625 45.9433 6.70916 45.6166 6.44283C45.2899 6.17649 44.8779 6.04332 44.3808 6.04332C43.8801 6.04332 43.4646 6.17649 43.1343 6.44283C42.8076 6.70916 42.5644 7.0625 42.4046 7.50284C42.2483 7.93963 42.1702 8.41903 42.1702 8.94105C42.1702 9.46662 42.2483 9.9478 42.4046 10.3846C42.5644 10.8214 42.8076 11.1712 43.1343 11.4339C43.4646 11.6967 43.8801 11.8281 44.3808 11.8281ZM42.7721 3.82741L41.7014 3.79545C41.7014 3.20597 41.8595 2.73544 42.1755 2.38388C42.4951 2.03232 42.8893 1.85653 43.358 1.85653C43.5747 1.85653 43.7646 1.89382 43.928 1.96839C44.0914 2.03942 44.2441 2.12287 44.3861 2.21875C44.5317 2.31108 44.6755 2.39453 44.8176 2.4691C44.9632 2.54013 45.1247 2.57564 45.3023 2.57564C45.5083 2.57564 45.6752 2.49751 45.803 2.34126C45.9344 2.18501 46.0001 1.99148 46.0001 1.76065L47.0494 1.8299C47.0494 2.42294 46.8896 2.88991 46.57 3.23082C46.2504 3.56818 45.858 3.73864 45.3928 3.74219C45.1407 3.74219 44.9312 3.70668 44.7643 3.63565C44.6009 3.56108 44.4553 3.47763 44.3275 3.3853C44.1997 3.28942 44.0683 3.20419 43.9333 3.12962C43.7984 3.05504 43.6368 3.01776 43.4486 3.01776C43.2497 3.01776 43.0864 3.09588 42.9585 3.25213C42.8343 3.40483 42.7721 3.59659 42.7721 3.82741ZM53.4934 13.1651C52.6873 13.1651 51.9931 12.9929 51.4107 12.6484C50.8319 12.3004 50.3844 11.8121 50.0684 11.1836C49.7559 10.5515 49.5996 9.81108 49.5996 8.96236C49.5996 8.12429 49.7559 7.38565 50.0684 6.74645C50.3844 6.10724 50.8248 5.60831 51.3894 5.24964C51.9576 4.89098 52.6216 4.71165 53.3816 4.71165C53.8432 4.71165 54.2907 4.788 54.7239 4.9407C55.1571 5.09339 55.546 5.3331 55.8904 5.6598C56.2349 5.98651 56.5066 6.41087 56.7054 6.93288C56.9043 7.45135 57.0037 8.08168 57.0037 8.82386V9.38849H50.4998V8.19531H55.443C55.443 7.77628 55.3578 7.40518 55.1873 7.08203C55.0169 6.75533 54.7772 6.49787 54.4682 6.30966C54.1628 6.12145 53.8042 6.02734 53.3922 6.02734C52.9448 6.02734 52.5542 6.13743 52.2203 6.3576C51.8901 6.57422 51.6344 6.85831 51.4533 7.20987C51.2757 7.55788 51.187 7.93608 51.187 8.34446V9.27663C51.187 9.82351 51.2828 10.2887 51.4746 10.6722C51.6699 11.0558 51.9416 11.3487 52.2896 11.5511C52.6376 11.75 53.0442 11.8494 53.5094 11.8494C53.8113 11.8494 54.0865 11.8068 54.335 11.7216C54.5836 11.6328 54.7985 11.5014 54.9796 11.3274C55.1607 11.1534 55.2992 10.9386 55.3951 10.6829L56.9025 10.9545C56.7818 11.3984 56.5652 11.7873 56.2527 12.1211C55.9437 12.4513 55.5549 12.7088 55.0861 12.8935C54.6209 13.0746 54.09 13.1651 53.4934 13.1651ZM64.9019 6.8157L63.4584 7.07138C63.398 6.88672 63.3021 6.71094 63.1707 6.54403C63.0429 6.37713 62.8689 6.24041 62.6487 6.13388C62.4285 6.02734 62.1533 5.97408 61.8231 5.97408C61.3721 5.97408 60.9956 6.07528 60.6938 6.2777C60.392 6.47656 60.241 6.73402 60.241 7.05007C60.241 7.32351 60.3422 7.54368 60.5447 7.71058C60.7471 7.87749 61.0738 8.0142 61.5248 8.12074L62.8245 8.41903C63.5773 8.59304 64.1384 8.86115 64.5077 9.22337C64.877 9.58558 65.0617 10.0561 65.0617 10.6349C65.0617 11.125 64.9197 11.5618 64.6356 11.9453C64.355 12.3253 63.9626 12.6236 63.4584 12.8402C62.9577 13.0568 62.377 13.1651 61.7165 13.1651C60.8003 13.1651 60.0528 12.9698 59.474 12.5792C58.8952 12.185 58.54 11.6257 58.4086 10.9013L59.9481 10.6669C60.0439 11.0682 60.241 11.3718 60.5393 11.5778C60.8376 11.7802 61.2265 11.8814 61.7059 11.8814C62.2279 11.8814 62.6452 11.7731 62.9577 11.5565C63.2702 11.3363 63.4264 11.0682 63.4264 10.7521C63.4264 10.4964 63.3305 10.2816 63.1388 10.1076C62.9506 9.93359 62.6611 9.8022 62.2705 9.71342L60.8856 9.4098C60.1221 9.2358 59.5574 8.95881 59.1917 8.57884C58.8295 8.19886 58.6483 7.71768 58.6483 7.1353C58.6483 6.65234 58.7833 6.22976 59.0532 5.86754C59.3231 5.50533 59.6959 5.22301 60.1718 5.0206C60.6476 4.81463 61.1927 4.71165 61.8071 4.71165C62.6913 4.71165 63.3873 4.90341 63.8952 5.28693C64.403 5.6669 64.7385 6.17649 64.9019 6.8157Z" fill="white"/>
<path d="M83.848 10.6432C83.4563 11.2699 82.5437 11.2699 82.152 10.6432L78.9562 5.53C78.54 4.86395 79.0188 4 79.8042 4L86.1958 4C86.9812 4 87.46 4.86395 87.0438 5.53L83.848 10.6432Z" fill="#99F3F5"/>
</svg>
