<svg width="40" height="40" viewBox="0 0 40 40" fill="none" xmlns="http://www.w3.org/2000/svg">
<circle opacity="0.75" cx="10" cy="10" r="10" fill="url(#paint0_linear_1_234)"/>
<g filter="url(#filter0_b_1_234)">
<path fill-rule="evenodd" clip-rule="evenodd" d="M23.0419 31.9644C23.2294 31.7769 23.4837 31.6716 23.749 31.6716H30.0042C32.7668 31.6716 35.0063 29.432 35.0063 26.6695V9.99586C35.0063 7.23328 32.7668 4.99377 30.0042 4.99377H9.99586C7.23328 4.99377 4.99377 7.23328 4.99377 9.99586V26.6695C4.99377 29.432 7.23328 31.6716 9.99586 31.6716H16.2511C16.5163 31.6716 16.7707 31.7769 16.9582 31.9644L19.2929 34.2992C19.6834 34.6897 20.3166 34.6897 20.7071 34.2992L23.0419 31.9644Z" fill="url(#paint1_linear_1_234)"/>
<path fill-rule="evenodd" clip-rule="evenodd" d="M23.0419 31.9644C23.2294 31.7769 23.4837 31.6716 23.749 31.6716H30.0042C32.7668 31.6716 35.0063 29.432 35.0063 26.6695V9.99586C35.0063 7.23328 32.7668 4.99377 30.0042 4.99377H9.99586C7.23328 4.99377 4.99377 7.23328 4.99377 9.99586V26.6695C4.99377 29.432 7.23328 31.6716 9.99586 31.6716H16.2511C16.5163 31.6716 16.7707 31.7769 16.9582 31.9644L19.2929 34.2992C19.6834 34.6897 20.3166 34.6897 20.7071 34.2992L23.0419 31.9644Z" stroke="url(#paint2_radial_1_234)" stroke-width="1.5" stroke-linecap="round"/>
</g>
<path d="M21.7678 13.2322C22.7441 14.2086 22.7441 15.7915 21.7678 16.7678C20.7915 17.7441 19.2086 17.7441 18.2322 16.7678C17.2559 15.7915 17.2559 14.2086 18.2322 13.2322C19.2086 12.2559 20.7915 12.2559 21.7678 13.2322" stroke="#41D987" stroke-width="1.5" stroke-linecap="round" stroke-linejoin="round"/>
<g filter="url(#filter1_b_1_234)">
<path d="M14.2857 23.9286V23.2143C14.2857 21.0529 17.1086 19.6486 20 19.6486C22.8914 19.6486 25.7143 21.0529 25.7143 23.2143V23.9286" stroke="url(#paint3_radial_1_234)" stroke-width="1.5" stroke-linecap="round"/>
</g>
<defs>
<filter id="filter0_b_1_234" x="-4.75623" y="-4.75623" width="49.5125" height="49.0983" filterUnits="userSpaceOnUse" color-interpolation-filters="sRGB">
<feFlood flood-opacity="0" result="BackgroundImageFix"/>
<feGaussianBlur in="BackgroundImageFix" stdDeviation="4.5"/>
<feComposite in2="SourceAlpha" operator="in" result="effect1_backgroundBlur_1_234"/>
<feBlend mode="normal" in="SourceGraphic" in2="effect1_backgroundBlur_1_234" result="shape"/>
</filter>
<filter id="filter1_b_1_234" x="-2.46429" y="2.89862" width="44.9286" height="37.78" filterUnits="userSpaceOnUse" color-interpolation-filters="sRGB">
<feFlood flood-opacity="0" result="BackgroundImageFix"/>
<feGaussianBlur in="BackgroundImageFix" stdDeviation="8"/>
<feComposite in2="SourceAlpha" operator="in" result="effect1_backgroundBlur_1_234"/>
<feBlend mode="normal" in="SourceGraphic" in2="effect1_backgroundBlur_1_234" result="shape"/>
</filter>
<linearGradient id="paint0_linear_1_234" x1="-3.75" y1="9.31322e-09" x2="10" y2="20" gradientUnits="userSpaceOnUse">
<stop stop-color="#41D987"/>
<stop offset="1" stop-color="#41D987" stop-opacity="0"/>
</linearGradient>
<linearGradient id="paint1_linear_1_234" x1="-25.0187" y1="-25.0187" x2="3.2013" y2="47.4" gradientUnits="userSpaceOnUse">
<stop stop-color="white" stop-opacity="0.4"/>
<stop offset="1" stop-color="white" stop-opacity="0"/>
</linearGradient>
<radialGradient id="paint2_radial_1_234" cx="0" cy="0" r="1" gradientUnits="userSpaceOnUse" gradientTransform="translate(20 20) rotate(90) scale(15.0063 11.6715)">
<stop stop-color="#D0C4EB"/>
<stop offset="1" stop-color="#A089D6" stop-opacity="0.5"/>
</radialGradient>
<radialGradient id="paint3_radial_1_234" cx="0" cy="0" r="1" gradientUnits="userSpaceOnUse" gradientTransform="translate(20 21.7886) rotate(90) scale(2.14 4.44444)">
<stop stop-color="#D0C4EB"/>
<stop offset="1" stop-color="#A089D6" stop-opacity="0.5"/>
</radialGradient>
</defs>
</svg>
