<svg width="45" height="16" viewBox="0 0 45 16" fill="none" xmlns="http://www.w3.org/2000/svg">
<path d="M27.1985 13V2.09091H34.038V3.50781H28.8445V6.83168H33.6811V8.24325H28.8445V11.5831H34.1019V13H27.1985ZM42.1865 4.95668C42.1297 4.45241 41.8953 4.06179 41.4834 3.7848C41.0715 3.50426 40.553 3.36399 39.928 3.36399C39.4806 3.36399 39.0935 3.43501 38.7668 3.57706C38.4401 3.71555 38.1862 3.90732 38.0051 4.15234C37.8275 4.39382 37.7387 4.66903 37.7387 4.97798C37.7387 5.23722 37.7991 5.46094 37.9198 5.64915C38.0441 5.83736 38.2057 5.99538 38.4046 6.12322C38.607 6.24751 38.8236 6.35227 39.0544 6.4375C39.2852 6.51918 39.5072 6.58665 39.7203 6.63991L40.7856 6.9169C41.1336 7.00213 41.4905 7.11754 41.8563 7.26314C42.222 7.40874 42.5612 7.6005 42.8737 7.83842C43.1862 8.07635 43.4383 8.37109 43.6301 8.72266C43.8254 9.07422 43.923 9.49503 43.923 9.98509C43.923 10.603 43.7632 11.1516 43.4436 11.631C43.1276 12.1104 42.6677 12.4886 42.064 12.7656C41.4639 13.0426 40.7377 13.1811 39.8854 13.1811C39.0686 13.1811 38.3619 13.0515 37.7654 12.7923C37.1688 12.533 36.7018 12.1655 36.3644 11.6896C36.0271 11.2102 35.8406 10.642 35.8051 9.98509H37.4564C37.4884 10.3793 37.6162 10.7077 37.8399 10.9705C38.0672 11.2298 38.3566 11.4233 38.7082 11.5511C39.0633 11.6754 39.4521 11.7376 39.8747 11.7376C40.3399 11.7376 40.7536 11.6648 41.1159 11.5192C41.4816 11.37 41.7693 11.1641 41.9788 10.9013C42.1883 10.6349 42.2931 10.3242 42.2931 9.9691C42.2931 9.64595 42.2007 9.38139 42.0161 9.17543C41.835 8.96946 41.5882 8.79901 41.2757 8.66406C40.9667 8.52912 40.6169 8.41016 40.2263 8.30717L38.9372 7.95561C38.0637 7.71768 37.3712 7.3679 36.8598 6.90625C36.352 6.4446 36.0981 5.83381 36.0981 5.07386C36.0981 4.44531 36.2686 3.89666 36.6095 3.42791C36.9504 2.95916 37.412 2.59517 37.9944 2.33594C38.5768 2.07315 39.2338 1.94176 39.9653 1.94176C40.7039 1.94176 41.3556 2.07138 41.9202 2.33061C42.4884 2.58984 42.9358 2.94673 43.2625 3.40128C43.5892 3.85227 43.7597 4.37074 43.7739 4.95668H42.1865Z" fill="#5A5566"/>
<path d="M0 8.00005C0 8.97861 0.176031 9.91599 0.497594 10.7826L8 11.4783L15.5024 10.7826C15.824 9.91599 16 8.97861 16 8.00005C16 7.02148 15.824 6.08411 15.5024 5.21745L8 4.52179L0.497594 5.21745C0.176031 6.08411 0 7.02148 0 8.00005Z" fill="#FFDA44"/>
<path d="M15.5024 5.21741C14.372 2.17103 11.4397 0 7.99996 0C4.56025 0 1.6279 2.17103 0.497559 5.21741H15.5024Z" fill="#D80027"/>
<path d="M0.497559 10.7826C1.6279 13.829 4.56025 16 7.99996 16C11.4397 16 14.372 13.829 15.5024 10.7826H0.497559Z" fill="#D80027"/>
</svg>
