<svg width="40" height="40" viewBox="0 0 40 40" fill="none" xmlns="http://www.w3.org/2000/svg">
<circle cx="30" cy="10" r="10" fill="url(#paint0_linear_1_218)"/>
<path d="M28.3333 14.1666V17.5" stroke="#5F41D9" stroke-width="2" stroke-linecap="round" stroke-linejoin="round"/>
<g filter="url(#filter0_b_1_218)">
<path fill-rule="evenodd" clip-rule="evenodd" d="M23.7698 28.889L24.623 35.7144L23.7698 28.889Z" fill="url(#paint1_linear_1_218)"/>
<path d="M23.7698 28.889L24.623 35.7144" stroke="url(#paint2_radial_1_218)" stroke-width="1.5" stroke-linecap="round"/>
</g>
<g filter="url(#filter1_b_1_218)">
<path fill-rule="evenodd" clip-rule="evenodd" d="M16.9444 28.889L16.0912 35.7144L16.9444 28.889Z" fill="url(#paint3_linear_1_218)"/>
<path d="M16.9444 28.889L16.0912 35.7144" stroke="url(#paint4_radial_1_218)" stroke-width="1.5" stroke-linecap="round"/>
</g>
<g filter="url(#filter2_b_1_218)">
<path fill-rule="evenodd" clip-rule="evenodd" d="M31.3273 28.8889H9.38702C6.96401 28.8889 5 26.9249 5 24.5019V9.38702C5 6.96401 6.96401 5 9.38702 5H31.3256C33.7503 5 35.7143 6.96401 35.7143 9.38702V24.5002C35.7143 26.9249 33.7503 28.8889 31.3273 28.8889Z" fill="url(#paint5_linear_1_218)"/>
<path fill-rule="evenodd" clip-rule="evenodd" d="M31.3273 28.8889H9.38702C6.96401 28.8889 5 26.9249 5 24.5019V9.38702C5 6.96401 6.96401 5 9.38702 5H31.3256C33.7503 5 35.7143 6.96401 35.7143 9.38702V24.5002C35.7143 26.9249 33.7503 28.8889 31.3273 28.8889Z" stroke="url(#paint6_radial_1_218)" stroke-width="1.5" stroke-linecap="round"/>
</g>
<g filter="url(#filter3_b_1_218)">
<path fill-rule="evenodd" clip-rule="evenodd" d="M13.7707 35.7142H26.9437H13.7707Z" fill="url(#paint7_linear_1_218)"/>
<path d="M13.7707 35.7142H26.9437" stroke="url(#paint8_radial_1_218)" stroke-width="1.5" stroke-linecap="round"/>
</g>
<path fill-rule="evenodd" clip-rule="evenodd" d="M18.6773 10.9199L14.1623 13.4282C13.2131 13.9555 13.2131 15.32 14.1623 15.8473L18.6773 18.3556C19.7216 18.9356 20.9918 18.9356 22.0369 18.3556L26.5519 15.8473C27.5011 15.32 27.5011 13.9555 26.5519 13.4282L22.0369 10.9199C20.9918 10.3399 19.7223 10.3399 18.6773 10.9199Z" stroke="#5F41D9" stroke-width="1.5"/>
<path d="M15.9628 16.847V19.7166C15.9628 20.4106 16.3101 21.0578 16.8871 21.4417L18.0623 22.2234C19.4525 23.1478 21.2617 23.1478 22.6512 22.2234L23.8264 21.4417C24.4041 21.0578 24.7507 20.4098 24.7507 19.7166V16.847" stroke="#5F41D9" stroke-width="1.5"/>
<defs>
<filter id="filter0_b_1_218" x="7.01971" y="12.1389" width="34.3533" height="40.3256" filterUnits="userSpaceOnUse" color-interpolation-filters="sRGB">
<feFlood flood-opacity="0" result="BackgroundImageFix"/>
<feGaussianBlur in="BackgroundImageFix" stdDeviation="8"/>
<feComposite in2="SourceAlpha" operator="in" result="effect1_backgroundBlur_1_218"/>
<feBlend mode="normal" in="SourceGraphic" in2="effect1_backgroundBlur_1_218" result="shape"/>
</filter>
<filter id="filter1_b_1_218" x="-0.658875" y="12.1389" width="34.3533" height="40.3256" filterUnits="userSpaceOnUse" color-interpolation-filters="sRGB">
<feFlood flood-opacity="0" result="BackgroundImageFix"/>
<feGaussianBlur in="BackgroundImageFix" stdDeviation="8"/>
<feComposite in2="SourceAlpha" operator="in" result="effect1_backgroundBlur_1_218"/>
<feBlend mode="normal" in="SourceGraphic" in2="effect1_backgroundBlur_1_218" result="shape"/>
</filter>
<filter id="filter2_b_1_218" x="-4.75" y="-4.75" width="50.2143" height="43.3889" filterUnits="userSpaceOnUse" color-interpolation-filters="sRGB">
<feFlood flood-opacity="0" result="BackgroundImageFix"/>
<feGaussianBlur in="BackgroundImageFix" stdDeviation="4.5"/>
<feComposite in2="SourceAlpha" operator="in" result="effect1_backgroundBlur_1_218"/>
<feBlend mode="normal" in="SourceGraphic" in2="effect1_backgroundBlur_1_218" result="shape"/>
</filter>
<filter id="filter3_b_1_218" x="-2.97931" y="18.9642" width="46.673" height="33.5" filterUnits="userSpaceOnUse" color-interpolation-filters="sRGB">
<feFlood flood-opacity="0" result="BackgroundImageFix"/>
<feGaussianBlur in="BackgroundImageFix" stdDeviation="8"/>
<feComposite in2="SourceAlpha" operator="in" result="effect1_backgroundBlur_1_218"/>
<feBlend mode="normal" in="SourceGraphic" in2="effect1_backgroundBlur_1_218" result="shape"/>
</filter>
<linearGradient id="paint0_linear_1_218" x1="35.8333" y1="-1.25" x2="18.3333" y2="20" gradientUnits="userSpaceOnUse">
<stop stop-color="#41B5D9"/>
<stop offset="1" stop-color="#41B5D9" stop-opacity="0"/>
</linearGradient>
<linearGradient id="paint1_linear_1_218" x1="21.6369" y1="22.0636" x2="30.2586" y2="27.5949" gradientUnits="userSpaceOnUse">
<stop stop-color="white" stop-opacity="0.4"/>
<stop offset="1" stop-color="white" stop-opacity="0"/>
</linearGradient>
<radialGradient id="paint2_radial_1_218" cx="0" cy="0" r="1" gradientUnits="userSpaceOnUse" gradientTransform="translate(24.1964 32.3017) rotate(90) scale(3.4127 0.663579)">
<stop stop-color="#D0C4EB"/>
<stop offset="1" stop-color="#A089D6" stop-opacity="0.5"/>
</radialGradient>
<linearGradient id="paint3_linear_1_218" x1="13.9583" y1="22.0636" x2="22.58" y2="27.5949" gradientUnits="userSpaceOnUse">
<stop stop-color="white" stop-opacity="0.4"/>
<stop offset="1" stop-color="white" stop-opacity="0"/>
</linearGradient>
<radialGradient id="paint4_radial_1_218" cx="0" cy="0" r="1" gradientUnits="userSpaceOnUse" gradientTransform="translate(16.5178 32.3017) rotate(90) scale(3.4127 0.663581)">
<stop stop-color="#D0C4EB"/>
<stop offset="1" stop-color="#A089D6" stop-opacity="0.5"/>
</radialGradient>
<linearGradient id="paint5_linear_1_218" x1="-25.7143" y1="-18.8889" x2="-7.28385" y2="41.9209" gradientUnits="userSpaceOnUse">
<stop stop-color="white" stop-opacity="0.4"/>
<stop offset="1" stop-color="white" stop-opacity="0"/>
</linearGradient>
<radialGradient id="paint6_radial_1_218" cx="0" cy="0" r="1" gradientUnits="userSpaceOnUse" gradientTransform="translate(20.3571 16.9444) rotate(90) scale(11.9444)">
<stop stop-color="#D0C4EB"/>
<stop offset="1" stop-color="#A089D6" stop-opacity="0.5"/>
</radialGradient>
<linearGradient id="paint7_linear_1_218" x1="0.597675" y1="33.1547" x2="0.836454" y2="37.8852" gradientUnits="userSpaceOnUse">
<stop stop-color="white" stop-opacity="0.4"/>
<stop offset="1" stop-color="white" stop-opacity="0"/>
</linearGradient>
<radialGradient id="paint8_radial_1_218" cx="0" cy="0" r="1" gradientUnits="userSpaceOnUse" gradientTransform="translate(20.3572 35.7142) rotate(90) scale(0.853174 5.12284)">
<stop stop-color="#D0C4EB"/>
<stop offset="1" stop-color="#A089D6" stop-opacity="0.5"/>
</radialGradient>
</defs>
</svg>
